<svg width="20" height="21" viewBox="0 0 20 21" fill="none" xmlns="http://www.w3.org/2000/svg">
<path d="M6.17129 1.93872C5.62289 1.93872 5.14479 2.30986 5.00879 2.84106L4.93223 3.13872H15.0627L14.99 2.84731C14.856 2.31291 14.3768 1.93872 13.8252 1.93872H6.17129ZM4.8002 3.93872C3.463 3.93872 3.2362 5.14272 3.2002 5.93872C3.2002 6.15992 3.3794 6.33872 3.6002 6.33872H16.4002C16.621 6.33872 16.8002 6.15992 16.8002 5.93872C16.7638 5.14272 16.5366 3.93872 15.2002 3.93872H4.8002ZM4.09941 7.13872L5.59082 18.7567C5.65882 19.1955 6.07905 19.5387 6.54785 19.5387H13.4533C13.9217 19.5387 14.3423 19.1954 14.4119 18.7458L14.8744 15.1387L15.901 7.13872H4.09941ZM9.9627 8.73872C9.9803 8.73632 9.98124 8.73872 9.99004 8.73872C11.1448 8.73872 12.1193 9.54872 12.5557 10.7387H12.5963H14.6322L14.2736 13.5387H12.6111H12.5564C12.4624 13.8007 12.3501 14.0522 12.2041 14.2762C11.6869 15.069 10.8969 15.5287 10.0369 15.5379H10.0096C9.16077 15.5379 8.37196 15.0971 7.84316 14.3239C7.68156 14.0879 7.55768 13.8195 7.45488 13.5387H7.40879H5.72754L5.36816 10.7387H7.39395H7.43613C7.86053 9.56112 8.8147 8.75152 9.9627 8.73872ZM9.98066 10.3387C9.66191 10.3423 9.3583 10.5354 9.13663 10.8754C8.91496 11.2155 8.79338 11.6747 8.79863 12.152C8.80385 12.6292 8.93542 13.0855 9.1644 13.4206C9.39339 13.7556 9.70104 13.942 10.0197 13.9387C10.1776 13.9371 10.3335 13.8889 10.4784 13.7969C10.6233 13.7049 10.7544 13.5708 10.8643 13.4024C10.9741 13.2341 11.0605 13.0346 11.1186 12.8155C11.1766 12.5964 11.2051 12.3619 11.2025 12.1254C11.2 11.889 11.1663 11.6553 11.1035 11.4376C11.0407 11.2198 10.95 11.0224 10.8365 10.8564C10.723 10.6905 10.589 10.5594 10.4422 10.4706C10.2954 10.3817 10.1385 10.3369 9.98066 10.3387Z" fill="#1B1918"/>
</svg>
