<svg width="20" height="21" viewBox="0 0 20 21" fill="none" xmlns="http://www.w3.org/2000/svg">
<path d="M10 1.13867C6.57188 1.13867 3.69688 3.55117 2.975 6.76367C3.04844 6.75586 3.125 6.73867 3.2 6.73867C3.40469 6.73867 3.60156 6.78086 3.7875 6.83867C4.46563 4.03398 6.98906 1.93867 10 1.93867C13.0109 1.93867 15.5344 4.03398 16.2125 6.83867C16.3984 6.78086 16.5953 6.73867 16.8 6.73867C16.875 6.73867 16.9516 6.75586 17.025 6.76367C16.3031 3.55117 13.4266 1.13867 10 1.13867ZM3.2 7.53867C2.53906 7.53867 2 8.07773 2 8.73867V14.7387C2 15.3996 2.53906 15.9387 3.2 15.9387C3.86094 15.9387 4.4 15.3996 4.4 14.7387V8.73867C4.4 8.07773 3.86094 7.53867 3.2 7.53867ZM16.8 7.53867C16.1391 7.53867 15.6 8.07773 15.6 8.73867V14.7387C15.6 15.3996 16.1391 15.9387 16.8 15.9387C17.4609 15.9387 18 15.3996 18 14.7387V8.73867C18 8.07773 17.4609 7.53867 16.8 7.53867ZM1.2 8.78867C0.478125 9.36836 0 10.4559 0 11.7387C0 13.0215 0.478125 14.109 1.2 14.6887V8.78867ZM18.8 8.78867V14.6887C19.5219 14.109 20 13.0215 20 11.7387C20 10.4559 19.5219 9.36836 18.8 8.78867Z" fill="#1B1918"/>
</svg>
