<svg width="20" height="21" viewBox="0 0 20 21" fill="none" xmlns="http://www.w3.org/2000/svg">
<path d="M8.39961 1.93896C4.64023 1.93896 1.59961 4.97959 1.59961 8.73896C1.59961 12.4983 4.64023 15.539 8.39961 15.539C9.7418 15.539 10.984 15.1452 12.0371 14.4765L16.9496 19.389L18.6496 17.689L13.7996 12.8515C14.6715 11.7077 15.1996 10.2905 15.1996 8.73896C15.1996 4.97959 12.159 1.93896 8.39961 1.93896ZM8.39961 3.53896C11.2793 3.53896 13.5996 5.85928 13.5996 8.73896C13.5996 11.6187 11.2793 13.939 8.39961 13.939C5.51992 13.939 3.19961 11.6187 3.19961 8.73896C3.19961 5.85928 5.51992 3.53896 8.39961 3.53896Z" fill="#1B1918"/>
</svg>
